<?xml version="1.0" standalone="no"?>
<!DOCTYPE svg PUBLIC "-//W3C//DTD SVG 20010904//EN"
 "http://www.w3.org/TR/2001/REC-SVG-20010904/DTD/svg10.dtd">
<svg version="1.0" xmlns="http://www.w3.org/2000/svg"
 width="300.000000pt" height="63.000000pt" viewBox="0 0 300.000000 63.000000"
 preserveAspectRatio="xMidYMid meet">
<metadata>
Created by potrace 1.10, written by Peter Selinger 2001-2011
</metadata>
<g transform="translate(0.000000,63.000000) scale(0.100000,-0.100000)"
fill="#000000" stroke="none">
<path d="M2593 602 c-103 -37 -172 -115 -194 -221 -10 -47 -9 -66 5 -120 57
-220 316 -296 476 -141 110 107 119 280 20 393 -79 89 -205 126 -307 89z m192
-46 c94 -45 145 -123 145 -226 0 -174 -153 -292 -317 -245 -46 13 -69 28 -108
68 -55 57 -75 105 -75 183 1 176 194 296 355 220z"/>
<path d="M2540 400 c-21 -21 -27 -60 -10 -60 6 0 10 6 10 14 0 41 73 45 83 5
3 -12 10 -18 16 -14 17 10 13 24 -14 50 -29 30 -58 32 -85 5z"/>
<path d="M2752 413 c-20 -8 -44 -61 -31 -68 6 -4 11 -5 12 -4 29 55 57 63 83
25 20 -32 38 -34 29 -3 -13 42 -55 66 -93 50z"/>
<path d="M2540 241 c20 -70 74 -111 145 -111 65 0 124 47 140 113 l7 27 -150
0 -151 0 9 -29z m268 9 c2 0 -1 -7 -6 -16 -7 -12 -30 -16 -120 -17 -109 -2
-122 1 -122 31 0 5 190 7 248 2z m-94 -76 c32 -12 15 -24 -34 -24 -27 0 -50 4
-50 9 0 18 53 27 84 15z"/>
<path d="M469 383 c-6 -67 2 -268 10 -271 14 -5 15 264 1 273 -5 3 -10 3 -11
-2z"/>
<path d="M1379 386 c-8 -8 -1 -271 7 -268 4 1 6 28 5 60 -2 46 2 63 19 85 24
30 51 35 74 11 12 -11 16 -36 16 -90 0 -43 4 -74 10 -74 6 0 10 32 10 75 0 67
-3 79 -25 100 -30 31 -44 31 -79 4 l-28 -22 3 57 c2 52 -2 72 -12 62z"/>
<path d="M99 365 c-72 -39 -70 -203 2 -240 15 -8 38 -15 51 -15 25 0 88 35 88
48 0 20 -13 18 -35 -4 -49 -49 -119 -22 -136 54 -17 77 10 137 67 148 28 5 42
2 66 -16 39 -28 51 -16 15 16 -32 27 -78 31 -118 9z"/>
<path d="M730 245 c0 -83 4 -135 10 -135 6 0 10 7 10 17 0 15 1 15 18 0 27
-24 69 -21 97 8 20 19 25 34 25 72 0 55 -18 88 -54 97 -28 7 -76 -8 -76 -24 0
-7 6 -8 19 0 52 28 91 -3 91 -72 0 -52 -21 -78 -63 -78 -36 0 -59 38 -57 92 5
83 0 158 -10 158 -6 0 -10 -52 -10 -135z"/>
<path d="M1020 373 c0 -20 75 -263 82 -263 7 0 68 186 68 209 0 6 5 11 10 11
6 0 10 -8 10 -17 0 -28 54 -194 64 -196 10 -2 90 253 81 261 -9 10 -15 -4 -49
-118 l-33 -112 -33 116 c-18 64 -36 116 -40 116 -7 0 -71 -196 -70 -219 0 -38
-15 7 -60 177 -6 23 -15 42 -20 42 -6 0 -10 -3 -10 -7z"/>
<path d="M1950 245 c0 -83 4 -135 10 -135 6 0 10 52 10 135 0 83 -4 135 -10
135 -6 0 -10 -52 -10 -135z"/>
<path d="M300 292 c-14 -11 -22 -23 -18 -27 4 -4 14 0 23 9 31 30 85 12 85
-29 0 -23 -4 -25 -43 -25 -50 0 -77 -22 -77 -63 0 -44 65 -64 102 -30 17 15
18 15 18 0 0 -10 5 -17 10 -17 15 0 13 153 -2 173 -21 27 -70 32 -98 9z m90
-105 c0 -33 -32 -59 -67 -55 -22 2 -29 9 -31 31 -4 30 19 45 71 46 22 1 27 -3
27 -22z"/>
<path d="M567 290 c-66 -52 -36 -180 42 -180 30 0 81 33 69 45 -4 4 -14 0 -23
-9 -36 -35 -105 -6 -105 44 0 13 12 15 70 12 65 -4 70 -3 70 16 0 34 -20 69
-47 81 -34 15 -47 14 -76 -9z m83 -20 c37 -37 26 -50 -41 -50 -58 0 -60 1 -54
23 15 47 61 61 95 27z"/>
<path d="M1615 301 c-43 -18 -62 -73 -46 -130 19 -64 87 -83 131 -36 18 19 20
25 8 25 -9 0 -18 -7 -22 -15 -7 -19 -69 -20 -85 -2 -6 8 -12 24 -13 37 -3 22
-1 23 66 21 l69 -2 -6 37 c-4 21 -12 43 -19 50 -18 18 -59 25 -83 15z m69 -33
c28 -40 21 -48 -44 -48 -33 0 -60 3 -60 6 0 11 23 49 34 56 21 15 55 8 70 -14z"/>
<path d="M1787 290 c-66 -52 -36 -180 42 -180 30 0 81 33 69 45 -4 4 -14 0
-23 -9 -36 -35 -105 -6 -105 44 0 13 12 15 70 12 65 -4 70 -3 70 16 0 34 -20
69 -47 81 -34 15 -47 14 -76 -9z m83 -20 c37 -37 26 -50 -41 -50 -58 0 -60 1
-54 23 15 47 61 61 95 27z"/>
<path d="M2063 300 c-30 -12 -43 -41 -43 -95 0 -56 32 -95 78 -95 32 0 82 33
70 46 -5 4 -16 0 -26 -9 -38 -35 -102 -12 -102 36 0 21 4 22 65 19 l65 -4 0
32 c0 20 -9 40 -25 55 -25 26 -45 30 -82 15z m69 -27 c10 -9 18 -24 18 -35 0
-15 -8 -18 -55 -18 -60 0 -71 15 -38 52 20 22 51 23 75 1z"/>
<path d="M2254 288 c-23 -18 -27 -19 -21 -5 4 10 2 17 -6 17 -9 0 -11 -25 -9
-95 4 -111 22 -129 22 -22 0 78 15 107 54 107 9 0 14 5 11 10 -9 15 -19 12
-51 -12z"/>
</g>
</svg>
